<svg version="1.1" id="Layer_1" xmlns="http://www.w3.org/2000/svg" xmlns:xlink="http://www.w3.org/1999/xlink" x="0px" y="0px"
	 width="100%" viewBox="0 0 500 500" enable-background="new 0 0 500 500" xml:space="preserve">
<path fill="#0038FF" opacity="1.000000" stroke="none" 
	d="
M273.000000,501.000000 
	C182.000015,501.000000 91.500046,501.000000 1.000049,501.000000 
	C1.000032,334.333405 1.000032,167.666794 1.000016,1.000138 
	C167.666565,1.000092 334.333130,1.000092 500.999756,1.000046 
	C500.999847,167.666519 500.999847,334.333038 500.999939,500.999786 
	C425.166656,501.000000 349.333344,501.000000 273.000000,501.000000 
M295.649506,249.006058 
	C286.783325,247.661057 277.917145,246.316071 268.134094,244.831985 
	C280.345276,235.769592 291.580170,227.475464 302.752045,219.097336 
	C304.597290,217.713531 306.728851,216.244934 307.707275,214.301575 
	C308.710632,212.308716 309.469604,209.055496 308.498779,207.500992 
	C307.349060,205.660049 304.296722,204.321381 301.953522,204.121765 
	C299.963257,203.952225 297.531281,205.344849 295.774475,206.678345 
	C287.687286,212.816864 279.928345,219.395905 271.735870,225.384979 
	C265.662231,229.825058 259.103577,233.601669 251.622604,238.404724 
	C252.457260,229.986694 253.278915,223.067001 253.800888,216.124786 
	C254.647629,204.862976 255.381897,193.590759 255.970642,182.312866 
	C256.113525,179.575699 256.272675,176.018127 252.379379,175.693741 
	C248.664291,175.384186 248.607132,178.940872 248.121048,181.386566 
	C246.597885,189.050400 245.336258,196.766037 243.953552,204.458038 
	C242.716446,211.340118 241.453186,218.217499 240.111313,225.592407 
	C231.003571,216.108826 222.744080,207.213745 214.107300,198.701477 
	C211.633743,196.263626 208.068436,194.933517 205.003723,193.095474 
	C204.584030,193.643555 204.164337,194.191635 203.744644,194.739716 
	C208.450958,213.635651 224.368546,225.276001 234.937958,241.244293 
	C229.858780,240.945709 225.376495,240.952347 220.970184,240.376984 
	C200.512558,237.705811 180.085022,234.801819 159.616440,232.221207 
	C157.788834,231.990799 155.743866,233.484421 153.799866,234.177353 
	C155.122650,235.827560 156.151260,238.467453 157.817337,238.962692 
	C166.686920,241.599197 175.660843,243.952118 184.702911,245.925385 
	C198.865250,249.016052 213.111008,251.724503 227.791779,254.689835 
	C226.203369,255.781158 224.987137,256.598907 223.789169,257.442535 
	C207.598328,268.844513 191.342880,280.157501 175.311615,291.779663 
	C173.446060,293.132172 172.824615,296.200806 171.626373,298.473816 
	C174.369873,298.577148 177.112961,298.715027 179.857285,298.747498 
	C180.283356,298.752533 180.715347,298.276093 181.144226,298.021637 
	C197.160110,288.519196 213.174530,279.014221 229.194443,269.518555 
	C230.587143,268.693054 232.016144,267.928772 233.627457,267.024261 
	C233.771210,267.948669 233.965363,268.439087 233.900726,268.892609 
	C232.353714,279.745941 230.638824,290.577576 229.265045,301.452423 
	C228.515213,307.387970 228.029816,313.393311 227.987595,319.371155 
	C227.949387,324.783722 231.035568,326.432251 235.872803,324.388733 
	C241.095612,322.182312 242.527069,317.738373 243.054871,312.758209 
	C244.124725,302.663452 244.993820,292.546722 246.134888,282.460419 
	C247.018585,274.649017 248.190063,266.870117 249.269318,258.810242 
	C264.417572,274.744049 278.992188,290.258606 293.860840,305.486053 
	C295.763855,307.434998 300.289948,309.559875 301.673676,308.655273 
	C303.906281,307.195740 305.163300,303.379181 305.615814,300.374939 
	C305.902466,298.471771 304.440704,295.816284 302.976990,294.218201 
	C293.781830,284.178955 284.362946,274.344727 275.026794,264.434418 
	C273.783936,263.115112 272.590820,261.748932 271.374664,260.404480 
	C271.655914,259.906097 271.937164,259.407684 272.218445,258.909302 
	C280.567200,260.012817 289.024323,260.601898 297.240936,262.332855 
	C311.857819,265.412079 326.316925,269.234741 340.869843,272.627167 
	C344.468201,273.466003 347.948059,273.282806 349.596252,269.047485 
	C351.338562,264.570374 349.672485,261.204315 344.157288,259.889557 
	C328.318268,256.113647 312.397705,252.679688 295.649506,249.006058 
z"/>
<path fill="#FBFCFF" opacity="1.000000" stroke="none" 
	d="
M296.079346,249.058701 
	C312.397705,252.679688 328.318268,256.113647 344.157288,259.889557 
	C349.672485,261.204315 351.338562,264.570374 349.596252,269.047485 
	C347.948059,273.282806 344.468201,273.466003 340.869843,272.627167 
	C326.316925,269.234741 311.857819,265.412079 297.240936,262.332855 
	C289.024323,260.601898 280.567200,260.012817 272.218445,258.909302 
	C271.937164,259.407684 271.655914,259.906097 271.374664,260.404480 
	C272.590820,261.748932 273.783936,263.115112 275.026794,264.434418 
	C284.362946,274.344727 293.781830,284.178955 302.976990,294.218201 
	C304.440704,295.816284 305.902466,298.471771 305.615814,300.374939 
	C305.163300,303.379181 303.906281,307.195740 301.673676,308.655273 
	C300.289948,309.559875 295.763855,307.434998 293.860840,305.486053 
	C278.992188,290.258606 264.417572,274.744049 249.269318,258.810242 
	C248.190063,266.870117 247.018585,274.649017 246.134888,282.460419 
	C244.993820,292.546722 244.124725,302.663452 243.054871,312.758209 
	C242.527069,317.738373 241.095612,322.182312 235.872803,324.388733 
	C231.035568,326.432251 227.949387,324.783722 227.987595,319.371155 
	C228.029816,313.393311 228.515213,307.387970 229.265045,301.452423 
	C230.638824,290.577576 232.353714,279.745941 233.900726,268.892609 
	C233.965363,268.439087 233.771210,267.948669 233.627457,267.024261 
	C232.016144,267.928772 230.587143,268.693054 229.194443,269.518555 
	C213.174530,279.014221 197.160110,288.519196 181.144226,298.021637 
	C180.715347,298.276093 180.283356,298.752533 179.857285,298.747498 
	C177.112961,298.715027 174.369873,298.577148 171.626373,298.473816 
	C172.824615,296.200806 173.446060,293.132172 175.311615,291.779663 
	C191.342880,280.157501 207.598328,268.844513 223.789169,257.442535 
	C224.987137,256.598907 226.203369,255.781158 227.791779,254.689835 
	C213.111008,251.724503 198.865250,249.016052 184.702911,245.925385 
	C175.660843,243.952118 166.686920,241.599197 157.817337,238.962692 
	C156.151260,238.467453 155.122650,235.827560 153.799866,234.177338 
	C155.743866,233.484421 157.788834,231.990799 159.616440,232.221207 
	C180.085022,234.801819 200.512558,237.705811 220.970184,240.376984 
	C225.376495,240.952347 229.858780,240.945709 234.937958,241.244293 
	C224.368546,225.276001 208.450958,213.635651 203.744644,194.739716 
	C204.164337,194.191635 204.584030,193.643555 205.003723,193.095474 
	C208.068436,194.933517 211.633743,196.263626 214.107300,198.701477 
	C222.744080,207.213745 231.003571,216.108826 240.111313,225.592407 
	C241.453186,218.217499 242.716446,211.340118 243.953552,204.458038 
	C245.336258,196.766037 246.597885,189.050400 248.121048,181.386566 
	C248.607132,178.940872 248.664291,175.384186 252.379379,175.693741 
	C256.272675,176.018127 256.113525,179.575699 255.970642,182.312866 
	C255.381897,193.590759 254.647629,204.862976 253.800888,216.124786 
	C253.278915,223.067001 252.457260,229.986694 251.622604,238.404724 
	C259.103577,233.601669 265.662231,229.825058 271.735870,225.384979 
	C279.928345,219.395905 287.687286,212.816864 295.774475,206.678345 
	C297.531281,205.344849 299.963257,203.952225 301.953522,204.121765 
	C304.296722,204.321381 307.349060,205.660049 308.498779,207.500992 
	C309.469604,209.055496 308.710632,212.308716 307.707275,214.301575 
	C306.728851,216.244934 304.597290,217.713531 302.752045,219.097336 
	C291.580170,227.475464 280.345276,235.769592 268.134094,244.831985 
	C277.917145,246.316071 286.783325,247.661057 296.079346,249.058701 
z"/>
</svg>